<?xml version="1.0" encoding="UTF-8" standalone="no"?>
<svg width="194px" height="185px" viewBox="0 0 194 185" version="1.1" xmlns="http://www.w3.org/2000/svg" xmlns:xlink="http://www.w3.org/1999/xlink" xmlns:sketch="http://www.bohemiancoding.com/sketch/ns">
    <!-- Generator: Sketch 3.4.2 (15857) - http://www.bohemiancoding.com/sketch -->
    <title>directorio</title>
    <desc>Created with Sketch.</desc>
    <defs>
        <linearGradient x1="50%" y1="0%" x2="50%" y2="100%" id="linearGradient-1">
            <stop stop-color="#7FD06A" offset="0%"></stop>
            <stop stop-color="#C1B22D" offset="100%"></stop>
        </linearGradient>
    </defs>
    <g id="Page-1" stroke="none" stroke-width="1" fill="none" fill-rule="evenodd" sketch:type="MSPage">
        <path d="M123.7637,83.2676 L123.7637,83.2676 L123.7637,83.2676 C123.7347,83.2586 123.7047,83.2466 123.6717,83.2386 C134.5337,74.8166 141.5427,61.6546 141.5427,46.8796 C141.5427,21.5136 120.9067,0.8766 95.5407,0.8766 C95.4887,0.8766 95.4377,0.8806 95.3847,0.8806 C70.0877,0.9656 49.5347,21.5656 49.5347,46.8796 C49.5347,56.4086 52.4647,65.2536 57.4477,72.6016 C57.4827,72.6526 57.5157,72.7036 57.5507,72.7536 C58.6017,74.2886 59.7387,75.7576 60.9627,77.1526 C61.0627,77.2676 61.1597,77.3866 61.2617,77.4996 C61.5467,77.8186 61.8397,78.1256 62.1307,78.4356 C62.3867,78.7066 62.6447,78.9766 62.9067,79.2406 C63.1587,79.4946 63.4117,79.7466 63.6697,79.9946 C64.0117,80.3246 64.3617,80.6466 64.7127,80.9656 C64.9217,81.1546 65.1267,81.3456 65.3377,81.5296 C65.9157,82.0356 66.5037,82.5296 67.1077,83.0056 C66.6877,83.1296 66.2757,83.2706 65.8597,83.4016 L65.8597,83.4016 L65.8597,83.4016 C65.1677,83.6176 64.4747,83.8276 63.7887,84.0556 C63.3747,84.1936 62.9627,84.3376 62.5507,84.4816 C61.8907,84.7126 61.2347,84.9506 60.5797,85.1946 C60.0757,85.3816 59.5707,85.5666 59.0707,85.7616 C58.2537,86.0816 57.4437,86.4146 56.6387,86.7556 C22.1637,101.3036 1.5667,134.8246 0.0827,174.1726 C0.0317,175.4426 -0.0003,176.7176 -0.0003,177.9996 C-0.0003,181.8646 3.1347,184.9996 6.9997,184.9996 L152.3517,184.9996 C156.2167,184.9996 159.3517,181.8646 159.3517,177.9996 C159.3517,174.1326 156.2167,170.9996 152.3517,170.9996 L14.2847,170.9996 C14.2847,170.9966 14.2867,170.9916 14.2867,170.9916 L14.2847,170.9916 L14.2867,170.9896 C16.7457,141.0056 30.8477,115.4056 56.3827,102.3266 L56.3827,102.4656 C63.0137,99.0486 70.1387,96.4416 77.6327,94.8026 C82.0257,93.6696 84.5077,90.5386 85.0137,86.8576 L85.0137,86.8576 L85.0137,86.8576 C85.6427,82.2976 83.2347,76.8956 77.6327,73.3926 C73.1797,70.2266 69.5367,66.1196 67.0647,61.3476 L67.0137,61.3476 C64.7967,56.9986 63.5347,52.0866 63.5347,46.8796 C63.5347,29.2866 77.8087,14.9656 95.3847,14.8806 C95.4377,14.8806 95.4887,14.8766 95.5407,14.8766 C113.1877,14.8766 127.5427,29.2336 127.5427,46.8796 C127.5427,56.3676 123.3887,64.8966 116.8087,70.7616 C116.4767,71.0526 116.1367,71.3376 115.7907,71.6196 C115.7557,71.6446 115.7267,71.6726 115.6937,71.6996 C115.3207,71.9996 114.9397,72.2926 114.5567,72.5796 C114.4587,72.6516 114.3637,72.7236 114.2657,72.7946 C113.9257,73.0466 113.5837,73.2966 113.2437,73.5376 C107.2457,77.2886 104.9067,83.2176 106.0367,87.9556 C106.8147,91.2166 109.2367,93.9136 113.2437,94.9476 C113.4177,94.9856 113.5877,95.0306 113.7597,95.0696 L113.7597,95.1106 C151.6287,103.6776 180.0017,137.5766 180.0017,177.9996 C180.0017,181.8646 183.1367,184.9996 187.0017,184.9996 C190.8687,184.9996 194.0017,181.8646 194.0017,177.9996 C194.0017,133.4106 164.3687,95.6206 123.7637,83.2676" id="directorio" fill="url(#linearGradient-1)" sketch:type="MSShapeGroup"></path>
    </g>
</svg>